<svg width="80" height="80" viewBox="0 0 80 80" fill="none" xmlns="http://www.w3.org/2000/svg">
<path d="M13.3329 36.6666C14.1825 36.6676 14.9997 36.9929 15.6175 37.5761C16.2352 38.1593 16.607 38.9565 16.6568 39.8046C16.7066 40.6527 16.4306 41.4879 15.8853 42.1394C15.34 42.7909 14.5665 43.2096 13.7229 43.31L13.3329 43.3333H9.99956C9.14996 43.3323 8.33279 43.007 7.715 42.4238C7.09721 41.8406 6.72545 41.0434 6.67566 40.1953C6.62586 39.3472 6.90181 38.512 7.44711 37.8605C7.99241 37.209 8.76591 36.7903 9.60956 36.69L9.99956 36.6666H13.3329ZM39.9996 6.66663C40.816 6.66673 41.604 6.96648 42.2141 7.50901C42.8243 8.05154 43.214 8.79912 43.3096 9.60996L43.3329 9.99996V13.3333C43.332 14.1829 43.0066 15.0001 42.4234 15.6179C41.8402 16.2356 41.043 16.6074 40.1949 16.6572C39.3468 16.707 38.5116 16.431 37.8601 15.8857C37.2086 15.3404 36.7899 14.5669 36.6896 13.7233L36.6662 13.3333V9.99996C36.6662 9.1159 37.0174 8.26806 37.6425 7.64294C38.2677 7.01782 39.1155 6.66663 39.9996 6.66663ZM69.9996 36.6666C70.8492 36.6676 71.6663 36.9929 72.2841 37.5761C72.9019 38.1593 73.2737 38.9565 73.3235 39.8046C73.3733 40.6527 73.0973 41.4879 72.552 42.1394C72.0067 42.7909 71.2332 43.2096 70.3896 43.31L69.9996 43.3333H66.6662C65.8166 43.3323 64.9995 43.007 64.3817 42.4238C63.7639 41.8406 63.3921 41.0434 63.3423 40.1953C63.2925 39.3472 63.5685 38.512 64.1138 37.8605C64.6591 37.209 65.4326 36.7903 66.2762 36.69L66.6662 36.6666H69.9996ZM16.3096 16.31C16.8835 15.736 17.6472 15.3913 18.4573 15.3403C19.2674 15.2894 20.0682 15.5358 20.7096 16.0333L21.0229 16.31L23.3562 18.6433C23.9541 19.2432 24.3011 20.0481 24.327 20.8946C24.3528 21.7411 24.0555 22.5657 23.4954 23.2009C22.9353 23.8361 22.1544 24.2343 21.3113 24.3146C20.4682 24.3949 19.6262 24.1513 18.9562 23.6333L18.6429 23.3566L16.3096 21.0233C15.6847 20.3982 15.3336 19.5505 15.3336 18.6666C15.3336 17.7827 15.6847 16.9351 16.3096 16.31ZM58.9762 16.31C59.5761 15.7121 60.381 15.365 61.2275 15.3392C62.074 15.3133 62.8986 15.6107 63.5338 16.1708C64.169 16.7309 64.5672 17.5118 64.6476 18.3549C64.7279 19.198 64.4843 20.04 63.9662 20.71L63.6896 21.0233L61.3562 23.3566C60.7564 23.9545 59.9514 24.3015 59.1049 24.3274C58.2585 24.3532 57.4338 24.0559 56.7986 23.4958C56.1634 22.9357 55.7652 22.1548 55.6849 21.3117C55.6046 20.4686 55.8482 19.6266 56.3662 18.9566L56.6429 18.6433L58.9762 16.31ZM46.6662 60C47.5503 60 48.3981 60.3511 49.0233 60.9763C49.6484 61.6014 49.9996 62.4492 49.9996 63.3333C49.9996 65.9855 48.946 68.529 47.0706 70.4044C45.1953 72.2797 42.6517 73.3333 39.9996 73.3333C37.3474 73.3333 34.8039 72.2797 32.9285 70.4044C31.0531 68.529 29.9996 65.9855 29.9996 63.3333C29.9997 62.5168 30.2994 61.7288 30.8419 61.1187C31.3845 60.5086 32.1321 60.1188 32.9429 60.0233L33.3329 60H46.6662ZM39.9996 20C44.1972 20 48.2885 21.3207 51.6938 23.7751C55.0991 26.2295 57.6458 29.6932 58.9732 33.6754C60.3006 37.6576 60.3414 41.9566 59.0898 45.9633C57.8382 49.97 55.3577 53.4814 51.9996 56C51.5401 56.345 50.9993 56.5655 50.4296 56.64L49.9996 56.6666H29.9996C29.2783 56.6666 28.5765 56.4327 27.9996 56C24.6414 53.4814 22.1609 49.97 20.9093 45.9633C19.6577 41.9566 19.6985 37.6576 21.0259 33.6754C22.3533 29.6932 24.9 26.2295 28.3054 23.7751C31.7107 21.3207 35.8019 20 39.9996 20Z" fill="#1E1E1E"/>
</svg>
