<svg width="80" height="80" viewBox="0 0 80 80" fill="none" xmlns="http://www.w3.org/2000/svg">
<path d="M47.3901 11.6666C45.0807 10.5704 42.5564 10.0017 40.0001 10.0017C37.4438 10.0017 34.9195 10.5704 32.6101 11.6666L10.3068 22.1233C6.7201 23.8033 5.78343 28.5466 7.5001 31.8233V48.3333C7.5001 48.9963 7.76349 49.6322 8.23233 50.1011C8.70117 50.5699 9.33706 50.8333 10.0001 50.8333C10.6631 50.8333 11.299 50.5699 11.7679 50.1011C12.2367 49.6322 12.5001 48.9963 12.5001 48.3333V35.5733L32.6101 45C34.9195 46.0962 37.4438 46.6649 40.0001 46.6649C42.5564 46.6649 45.0807 46.0962 47.3901 45L69.6934 34.5433C74.5468 32.27 74.5468 24.3966 69.6934 22.1233L47.3901 11.6666Z" fill="#1E1E1E"/>
<path d="M16.667 43.05V55.4167C16.667 58.7767 18.3437 61.9234 21.2837 63.5501C26.1803 66.2667 34.0137 70 40.0003 70C45.987 70 53.8203 66.2634 58.717 63.5534C61.657 61.9234 63.3337 58.7767 63.3337 55.42V43.05L49.5137 49.53C46.5398 50.9379 43.2906 51.6682 40.0003 51.6682C36.7101 51.6682 33.4608 50.9379 30.487 49.53L16.667 43.05Z" fill="#1E1E1E"/>
</svg>
