<svg width="80" height="80" viewBox="0 0 80 80" fill="none" xmlns="http://www.w3.org/2000/svg">
<path d="M66.6667 56.6666C68.4348 56.6666 70.1305 55.9642 71.3807 54.714C72.6309 53.4638 73.3333 51.7681 73.3333 50V13.3333C73.3333 11.5652 72.6309 9.86949 71.3807 8.61925C70.1305 7.369 68.4348 6.66663 66.6667 6.66663H31.5333C32.7 8.69996 33.3333 11 33.3333 13.3333H66.6667V50H36.6667V56.6666M50 23.3333V30H30V73.3333H23.3333V53.3333H16.6667V73.3333H10V46.6666H5V30C5 28.2318 5.70238 26.5362 6.95262 25.2859C8.20286 24.0357 9.89856 23.3333 11.6667 23.3333H50ZM26.6667 13.3333C26.6667 15.1014 25.9643 16.7971 24.714 18.0473C23.4638 19.2976 21.7681 20 20 20C18.2319 20 16.5362 19.2976 15.286 18.0473C14.0357 16.7971 13.3333 15.1014 13.3333 13.3333C13.3333 11.5652 14.0357 9.86949 15.286 8.61925C16.5362 7.369 18.2319 6.66663 20 6.66663C21.7681 6.66663 23.4638 7.369 24.714 8.61925C25.9643 9.86949 26.6667 11.5652 26.6667 13.3333Z" fill="white"/>
</svg>
