<svg width="34" height="34" viewBox="0 0 34 34" fill="none" xmlns="http://www.w3.org/2000/svg">
<path d="M12 13.6668L17.43 17.7402C17.7664 17.9925 18.1857 18.1083 18.6039 18.0644C19.0221 18.0205 19.4083 17.8201 19.685 17.5035L30.3333 5.3335" stroke="#FFFE0D" stroke-width="3.33333" stroke-linecap="round"/>
<path d="M32 17.0002C32.0001 20.1344 31.0184 23.1899 29.1928 25.7376C27.3672 28.2852 24.7894 30.197 21.8215 31.2045C18.8537 32.2119 15.6447 32.2644 12.6455 31.3545C9.64627 30.4447 7.00737 28.6182 5.09946 26.1316C3.19154 23.645 2.11044 20.6232 2.00802 17.4907C1.90559 14.3582 2.78697 11.2722 4.52837 8.66632C6.26978 6.0604 8.78372 4.06543 11.7171 2.96158C14.6505 1.85773 17.856 1.70047 20.8833 2.51188" stroke="#FFFE0D" stroke-width="3.33333" stroke-linecap="round"/>
</svg>
